<?xml version="1.0" encoding="UTF-8" standalone="no"?>
<svg
   xmlns:osb="http://www.openswatchbook.org/uri/2009/osb"
   xmlns:dc="http://purl.org/dc/elements/1.1/"
   xmlns:cc="http://creativecommons.org/ns#"
   xmlns:rdf="http://www.w3.org/1999/02/22-rdf-syntax-ns#"
   xmlns:svg="http://www.w3.org/2000/svg"
   xmlns="http://www.w3.org/2000/svg"
   width="150mm"
   height="40mm"
   viewBox="0 0 150 40"
   version="1.1"
   id="svg8">
  <defs
     id="defs2">
    <linearGradient
       id="linearGradient889"
       osb:paint="solid">
      <stop
         style="stop-color:#000000;stop-opacity:1;"
         offset="0"
         id="stop887" />
    </linearGradient>
  </defs>
  <metadata
     id="metadata5">
    <rdf:RDF>
      <cc:Work
         rdf:about="">
        <dc:format>image/svg+xml</dc:format>
        <dc:type
           rdf:resource="http://purl.org/dc/dcmitype/StillImage" />
        <dc:title></dc:title>
      </cc:Work>
    </rdf:RDF>
  </metadata>
  <g
     id="layer1">
    <text
       xml:space="preserve"
       style="font-size:38.1px;line-height:7.9;font-family:sans-serif;word-spacing:0px;white-space:pre;inline-size:130.472;fill:#ffffff;fill-opacity:1;stroke-width:0.264583"
       x="37.041668"
       y="142.11905"
       id="text30"
       transform="translate(-27.581213,-109.03742)"><tspan
         x="37.041668"
         y="142.11905"><tspan
           style="font-style:normal;font-variant:normal;font-weight:normal;font-stretch:normal;font-size:38.1px;font-family:LilyUPC;-inkscape-font-specification:LilyUPC;fill:#ffffff;fill-opacity:1;stroke-width:0.264583">Mis Mangas</tspan></tspan></text>
    <path
       style="fill:#ffffff;fill-opacity:1;fill-rule:evenodd;stroke:#000000;stroke-width:7.06454;stroke-miterlimit:4;stroke-dasharray:none;stroke-opacity:1"
       d=""
       id="path933"
       transform="scale(0.26458333)" />
    <path
       style="fill:#ffffff;fill-opacity:1;fill-rule:evenodd;stroke:#000000;stroke-width:7.06454;stroke-miterlimit:4;stroke-dasharray:none;stroke-opacity:1"
       d=""
       id="path941"
       transform="scale(0.26458333)" />
    <path
       style="fill:#ffffff;fill-opacity:1;fill-rule:evenodd;stroke:#000000;stroke-width:2.49769;stroke-miterlimit:4;stroke-dasharray:none;stroke-opacity:1"
       d=""
       id="path955"
       transform="scale(0.26458333)" />
    <g
       id="g1080"
       transform="matrix(0.27776906,0,0,0.19518749,61.908564,-11.099819)">
      <path
         style="fill:#ffffff;fill-rule:evenodd;stroke:#ffffff;stroke-width:4.14826;stroke-opacity:1"
         d="m 135.49378,130.68844 c -9.08181,-0.2596 -69.079877,-28.24021 -98.098917,-37.474306 -2.614051,-2.610729 -1.908401,-2.618219 0.818328,-6.897222 18.652959,-19.939141 74.407089,-1.042638 92.934609,21.527938 1.05049,1.35302 3.76074,4.65515 4.34598,4.65515 0.58524,0 2.93613,-2.07233 5.22418,-4.60518 22.46795,-25.596536 76.47381,-41.305921 93.53803,-20.600301 2.58246,3.421529 2.60272,3.588037 0.6134,5.042656 -31.12811,8.515505 -89.22966,37.853175 -99.37561,38.351265 z"
         id="path1084" />
      <path
         style="fill:#ffffff;fill-rule:evenodd;stroke:#ffffff;stroke-width:4.14826;stroke-opacity:1"
         d="M 126.21951,145.329 33.475609,110.01924 c -7.653367,-2.87592 -8.780487,-3.77229 -8.780487,-6.9829 0,-3.45395 2.570469,-3.39746 10.669924,0.23447 l 95.117254,36.54763 c 3.14639,1.19572 5.89956,0.96686 9.02476,0.1716 l 96.22545,-36.69985 c 8.44679,-3.81354 10.66993,-3.76022 10.66993,0.25588 0,2.86489 -0.64897,3.36374 -7.95732,6.11664 l -94.76041,35.66651 c -3.95035,1.32781 -7.8542,1.92969 -9.26473,1.90871 -1.50049,-0.0223 -4.57852,-0.76814 -8.20047,-1.90871 z"
         id="path1086" />
    </g>
  </g>
</svg>
