<?xml version="1.0" encoding="UTF-8" standalone="no"?>
<svg
   xmlns:osb="http://www.openswatchbook.org/uri/2009/osb"
   xmlns:dc="http://purl.org/dc/elements/1.1/"
   xmlns:cc="http://creativecommons.org/ns#"
   xmlns:rdf="http://www.w3.org/1999/02/22-rdf-syntax-ns#"
   xmlns:svg="http://www.w3.org/2000/svg"
   xmlns="http://www.w3.org/2000/svg"
   width="170mm"
   height="35mm"
   viewBox="0 0 170 35"
   version="1.1"
   id="svg8">
  <defs
     id="defs2">
    <linearGradient
       id="linearGradient889"
       osb:paint="solid">
      <stop
         style="stop-color:#000000;stop-opacity:1;"
         offset="0"
         id="stop887" />
    </linearGradient>
  </defs>
  <metadata
     id="metadata5">
    <rdf:RDF>
      <cc:Work
         rdf:about="">
        <dc:format>image/svg+xml</dc:format>
        <dc:type
           rdf:resource="http://purl.org/dc/dcmitype/StillImage" />
        <dc:title></dc:title>
      </cc:Work>
    </rdf:RDF>
  </metadata>
  <g
     id="layer1">
    <g
       aria-label="Mis Mangas"
       transform="translate(-29.697881,-117.50414)"
       id="text30"
       style="font-size:38.1px;line-height:7.9;font-family:sans-serif;word-spacing:0px;white-space:pre;inline-size:130.472;fill:#ffffff;fill-opacity:1;stroke-width:0.264583">
      <path
         d="m 51.328515,130.2314 -4.995044,12.23181 -5.181079,-12.23181 v 11.88765 h -2.855639 v -17.75706 h 4.492749 l 4.157885,9.30176 3.999756,-9.30176 h 4.418335 v 17.75706 h -4.036963 z"
         style="font-style:normal;font-variant:normal;font-weight:normal;font-stretch:normal;font-size:38.1px;font-family:LilyUPC;-inkscape-font-specification:LilyUPC;fill:#ffffff;fill-opacity:1;stroke-width:0.264583"
         id="path845" />
      <path
         d="m 57.272339,142.11905 v -12.6876 h 3.543969 v 12.6876 z m 1.795239,-17.79426 q 0.948779,0 1.478979,0.59531 0.539502,0.59531 0.539502,1.42317 0,0.84646 -0.548803,1.45107 -0.539502,0.60462 -1.506885,0.60462 -0.930176,0 -1.478979,-0.60462 -0.548804,-0.61391 -0.548804,-1.41386 0,-0.81856 0.548804,-1.43248 0.548803,-0.62321 1.516186,-0.62321 z"
         style="font-style:normal;font-variant:normal;font-weight:normal;font-stretch:normal;font-size:38.1px;font-family:LilyUPC;-inkscape-font-specification:LilyUPC;fill:#ffffff;fill-opacity:1;stroke-width:0.264583"
         id="path847" />
      <path
         d="m 65.504394,132.51964 q 0,0.73483 1.302246,1.1069 1.311548,0.36277 2.688208,0.68833 1.37666,0.31626 2.38125,1.07901 1.013891,0.75344 1.0604,2.34404 0,2.32544 -1.255737,3.33933 -1.246436,1.01389 -3.627685,1.19063 -0.297657,0.0372 -0.911573,0.0372 -1.618505,0 -2.790527,-0.25114 -1.172021,-0.26045 -1.627807,-0.42788 l -0.492994,-2.21382 q 0.418579,0.28835 1.53479,0.72553 1.116211,0.43719 2.688208,0.45579 1.674317,0 2.269629,-0.50229 0.604614,-0.5116 0.63252,-1.5906 0,-1.24644 -0.84646,-1.64642 -0.837159,-0.39997 -2.725415,-0.77204 -1.878955,-0.37207 -2.837036,-1.0697 -0.94878,-0.69764 -0.94878,-2.45567 0.139527,-3.06028 4.836914,-3.27422 0.15813,0 0.437183,-0.0186 0.279053,-0.0186 0.399975,-0.0186 1.702222,0 2.744019,0.24184 1.041797,0.24185 1.413867,0.39998 l 0.604614,2.05569 q -0.362768,-0.23255 -1.423169,-0.56741 -1.0604,-0.34417 -2.874243,-0.34417 -1.227832,0 -1.916162,0.28836 -0.68833,0.27905 -0.716235,1.19993 z"
         style="font-style:normal;font-variant:normal;font-weight:normal;font-stretch:normal;font-size:38.1px;font-family:LilyUPC;-inkscape-font-specification:LilyUPC;fill:#ffffff;fill-opacity:1;stroke-width:0.264583"
         id="path849" />
      <path
         d="m 96.711789,130.2314 -4.995044,12.23181 -5.181079,-12.23181 v 11.88765 h -2.855639 v -17.75706 h 4.492749 l 4.157885,9.30176 3.999756,-9.30176 h 4.418333 v 17.75706 h -4.036961 z"
         style="font-style:normal;font-variant:normal;font-weight:normal;font-stretch:normal;font-size:38.1px;font-family:LilyUPC;-inkscape-font-specification:LilyUPC;fill:#ffffff;fill-opacity:1;stroke-width:0.264583"
         id="path851" />
      <path
         d="m 110.19934,142.11905 v -1.33015 q -0.14883,0.34416 -1.00459,0.85576 -0.84646,0.5116 -2.88354,0.5116 -1.73943,-0.0651 -2.89285,-0.89297 -1.15342,-0.82786 -1.18132,-2.6138 0,-1.91616 1.36736,-2.87424 1.37666,-0.95808 4.12067,-1.16272 1.26504,-0.10232 1.94407,-0.64182 0.68833,-0.5488 0.68833,-1.22783 0,-0.68833 -0.63252,-1.18133 -0.62322,-0.49299 -1.69292,-0.49299 -2.20451,0 -3.43235,0.81856 -1.21853,0.80925 -1.5999,1.35805 l 0.5302,-2.52077 q 0,-0.0651 0.57671,-0.39998 0.58601,-0.33486 1.62781,-0.62322 1.0418,-0.29765 2.48357,-0.30696 2.93935,0 4.2509,1.00459 1.31155,0.99529 1.31155,2.6138 v 9.10642 z m -1.74873,-1.98128 q 1.74873,-0.47438 1.74873,-1.52548 v -2.89285 q -0.009,0.0279 -0.13022,0.26975 -0.12093,0.23254 -0.54881,0.46509 -0.42788,0.23254 -1.30224,0.33486 -1.48828,0.20464 -2.26963,0.66973 -0.78135,0.45578 -0.78135,1.572 0.12092,1.29294 2.06499,1.29294 0.58601,0 1.21853,-0.18604 z"
         style="font-style:normal;font-variant:normal;font-weight:normal;font-stretch:normal;font-size:38.1px;font-family:LilyUPC;-inkscape-font-specification:LilyUPC;fill:#ffffff;fill-opacity:1;stroke-width:0.264583"
         id="path853" />
      <path
         d="m 126.28207,132.36151 v 9.75754 h -2.6696 v -9.29246 q 0,-1.5999 -2.43706,-1.5999 -1.19063,0.13953 -1.71152,0.74414 -0.5116,0.59531 -0.61392,0.96738 v 9.18084 h -3.58118 v -12.6876 h 3.58118 v 1.0325 q 0.0744,-0.0465 0.50229,-0.33487 0.43719,-0.28835 1.22784,-0.5302 0.79995,-0.24184 1.85105,-0.24184 1.98127,0 2.91145,0.91157 0.93947,0.90227 0.93947,2.0929 z"
         style="font-style:normal;font-variant:normal;font-weight:normal;font-stretch:normal;font-size:38.1px;font-family:LilyUPC;-inkscape-font-specification:LilyUPC;fill:#ffffff;fill-opacity:1;stroke-width:0.264583"
         id="path855" />
      <path
         d="m 132.7561,144.93748 q 2.93936,0 2.93936,-1.74873 v -1.63711 q -1.35806,0.67903 -3.32073,0.67903 -1.43247,-0.0558 -2.44636,-0.46509 -1.00459,-0.41858 -1.72083,-1.84175 -0.70693,-1.43247 -0.70693,-4.20439 0.0744,-2.86494 0.91157,-4.2602 0.83716,-1.40457 1.88826,-1.74874 1.0604,-0.35346 2.41845,-0.35346 0.75345,0.0372 1.37666,0.25115 0.63252,0.21394 1.12552,0.47438 0.47439,0.25115 0.47439,0.26045 0,0 0,0 v -0.91157 h 3.54397 v 13.18059 q 0,3.86023 -5.68338,3.96255 -2.03708,0 -3.36723,-0.34416 -1.32085,-0.34417 -1.50689,-0.5302 l -0.26975,-1.98128 q 0.41858,0.27905 1.5906,0.71624 1.17202,0.43718 2.75332,0.50229 z m 2.93936,-12.79922 q 0,-0.10232 -0.64182,-0.49299 -0.64183,-0.39998 -1.45108,-0.5395 -1.20923,0 -1.92546,0.50229 -0.70694,0.493 -1.01389,1.50689 -0.29766,1.00459 -0.34417,2.6789 0,2.26033 0.66043,3.53467 0.66042,1.26504 2.50217,1.26504 0.97668,-0.0651 1.51619,-0.31626 0.5395,-0.26045 0.69763,-0.40928 z"
         style="font-style:normal;font-variant:normal;font-weight:normal;font-stretch:normal;font-size:38.1px;font-family:LilyUPC;-inkscape-font-specification:LilyUPC;fill:#ffffff;fill-opacity:1;stroke-width:0.264583"
         id="path857" />
      <path
         d="m 148.56909,142.11905 v -1.33015 q -0.14883,0.34416 -1.00459,0.85576 -0.84646,0.5116 -2.88355,0.5116 -1.73943,-0.0651 -2.89285,-0.89297 -1.15341,-0.82786 -1.18132,-2.6138 0,-1.91616 1.36736,-2.87424 1.37666,-0.95808 4.12068,-1.16272 1.26504,-0.10232 1.94407,-0.64182 0.68833,-0.5488 0.68833,-1.22783 0,-0.68833 -0.63252,-1.18133 -0.62322,-0.49299 -1.69292,-0.49299 -2.20452,0 -3.43235,0.81856 -1.21853,0.80925 -1.5999,1.35805 l 0.5302,-2.52077 q 0,-0.0651 0.5767,-0.39998 0.58601,-0.33486 1.62781,-0.62322 1.0418,-0.29765 2.48357,-0.30696 2.93936,0 4.2509,1.00459 1.31155,0.99529 1.31155,2.6138 v 9.10642 z m -1.74874,-1.98128 q 1.74874,-0.47438 1.74874,-1.52548 v -2.89285 q -0.009,0.0279 -0.13023,0.26975 -0.12092,0.23254 -0.5488,0.46509 -0.42788,0.23254 -1.30225,0.33486 -1.48828,0.20464 -2.26963,0.66973 -0.78135,0.45578 -0.78135,1.572 0.12093,1.29294 2.06499,1.29294 0.58602,0 1.21853,-0.18604 z"
         style="font-style:normal;font-variant:normal;font-weight:normal;font-stretch:normal;font-size:38.1px;font-family:LilyUPC;-inkscape-font-specification:LilyUPC;fill:#ffffff;fill-opacity:1;stroke-width:0.264583"
         id="path859" />
      <path
         d="m 156.80114,132.51964 q 0,0.73483 1.30225,1.1069 1.31155,0.36277 2.68821,0.68833 1.37666,0.31626 2.38125,1.07901 1.01389,0.75344 1.0604,2.34404 0,2.32544 -1.25574,3.33933 -1.24644,1.01389 -3.62769,1.19063 -0.29765,0.0372 -0.91157,0.0372 -1.61851,0 -2.79053,-0.25114 -1.17202,-0.26045 -1.6278,-0.42788 l -0.493,-2.21382 q 0.41858,0.28835 1.53479,0.72553 1.11621,0.43719 2.68821,0.45579 1.67432,0 2.26963,-0.50229 0.60461,-0.5116 0.63252,-1.5906 0,-1.24644 -0.84646,-1.64642 -0.83716,-0.39997 -2.72542,-0.77204 -1.87895,-0.37207 -2.83703,-1.0697 -0.94878,-0.69764 -0.94878,-2.45567 0.13953,-3.06028 4.83691,-3.27422 0.15813,0 0.43719,-0.0186 0.27905,-0.0186 0.39997,-0.0186 1.70222,0 2.74402,0.24184 1.0418,0.24185 1.41387,0.39998 l 0.60461,2.05569 q -0.36277,-0.23255 -1.42317,-0.56741 -1.0604,-0.34417 -2.87424,-0.34417 -1.22783,0 -1.91616,0.28836 -0.68833,0.27905 -0.71624,1.19993 z"
         style="font-style:normal;font-variant:normal;font-weight:normal;font-stretch:normal;font-size:38.1px;font-family:LilyUPC;-inkscape-font-specification:LilyUPC;fill:#ffffff;fill-opacity:1;stroke-width:0.264583"
         id="path861" />
    </g>
    <path
       style="fill:#ffffff;fill-opacity:1;fill-rule:evenodd;stroke:#000000;stroke-width:7.06454;stroke-miterlimit:4;stroke-dasharray:none;stroke-opacity:1"
       d=""
       id="path933"
       transform="scale(0.26458333)" />
    <path
       style="fill:#ffffff;fill-opacity:1;fill-rule:evenodd;stroke:#000000;stroke-width:7.06454;stroke-miterlimit:4;stroke-dasharray:none;stroke-opacity:1"
       d=""
       id="path941"
       transform="scale(0.26458333)" />
    <path
       style="fill:#ffffff;fill-opacity:1;fill-rule:evenodd;stroke:#000000;stroke-width:2.49769;stroke-miterlimit:4;stroke-dasharray:none;stroke-opacity:1"
       d=""
       id="path955"
       transform="scale(0.26458333)" />
    <g
       id="g1080"
       transform="matrix(0.10640872,0,0,0.20043023,138.22609,-5.1191848)">
      <path
         style="fill:#ffffff;fill-rule:evenodd;stroke:#ffffff;stroke-width:4.14826;stroke-opacity:1"
         d="m 135.49378,130.68844 c -9.08181,-0.2596 -69.079877,-28.24021 -98.098917,-37.474306 -2.614051,-2.610729 -1.908401,-2.618219 0.818328,-6.897222 18.652959,-19.939141 74.407089,-1.042638 92.934609,21.527938 1.05049,1.35302 3.76074,4.65515 4.34598,4.65515 0.58524,0 2.93613,-2.07233 5.22418,-4.60518 22.46795,-25.596536 76.47381,-41.305921 93.53803,-20.600301 2.58246,3.421529 2.60272,3.588037 0.6134,5.042656 -31.12811,8.515505 -89.22966,37.853175 -99.37561,38.351265 z"
         id="path1084" />
      <path
         style="fill:#ffffff;fill-rule:evenodd;stroke:#ffffff;stroke-width:4.14826;stroke-opacity:1"
         d="M 126.21951,145.329 33.475609,110.01924 c -7.653367,-2.87592 -8.780487,-3.77229 -8.780487,-6.9829 0,-3.45395 2.570469,-3.39746 10.669924,0.23447 l 95.117254,36.54763 c 3.14639,1.19572 5.89956,0.96686 9.02476,0.1716 l 96.22545,-36.69985 c 8.44679,-3.81354 10.66993,-3.76022 10.66993,0.25588 0,2.86489 -0.64897,3.36374 -7.95732,6.11664 l -94.76041,35.66651 c -3.95035,1.32781 -7.8542,1.92969 -9.26473,1.90871 -1.50049,-0.0223 -4.57852,-0.76814 -8.20047,-1.90871 z"
         id="path1086" />
    </g>
  </g>
</svg>
